<?xml version="1.0" encoding="UTF-8"?>
<svg id="Livello_1" data-name="Livello 1" xmlns="http://www.w3.org/2000/svg" viewBox="0 0 64 64">
  <defs>
    <style>
      .cls-1 {
        fill: #fff;
      }

      .cls-2 {
        fill: #14529e;
      }
    </style>
  </defs>
  <circle class="cls-1" cx="32" cy="32" r="32"/>
  <path class="cls-2" d="M52.19,10.81c-2.96,3.38-5.32,7.35-6.92,11.73-13.94,3.21-32.49,2.79-33.45-13.28,1.3,14.49,28.11,6.62,40.38,1.55M43.44,29.57c-.33,2.03-.5,4.11-.5,6.23,0,.37,0,.73.01,1.09-13.06.9-26.71-4.11-30.38-18.92l-.03-.15c3.66,13.62,18.37,14.46,30.89,11.74M47.3,53.66c.19.36.39.72.59,1.08-4.58-.67-9.03-2.23-13.22-4.48-1.18-.63-3.84-2.24-5.57-3.85,5.46,4.12,11.62,6.39,18.21,7.25M45.44,49.53c.35.93.74,1.84,1.16,2.73-9.61-.85-18.61-5.73-25.09-13.71-.4-.46-.98-1.29-1.42-1.98,6.33,8.49,15.64,12.69,25.35,12.96M21.51,38.55c-.49-.65-.96-1.31-1.42-1.98.44.69,1.02,1.52,1.42,1.98M43.39,41.73c.25,1.66.61,3.28,1.07,4.86-12.02-.33-23.41-6.74-29.11-18.93-.1-.21-.2-.46-.29-.73,5.46,11.7,16.97,15.57,28.33,14.8"/>
</svg>