<?xml version="1.0" encoding="UTF-8"?>
<svg id="Livello_1" xmlns="http://www.w3.org/2000/svg" width="98.05mm" height="33.9mm" viewBox="0 0 277.95 96.1">
  <defs>
    <style>
      .cls-1, .cls-2 {
        fill: #14529f;
      }

      .cls-1, .cls-3 {
        fill-rule: evenodd;
      }

      .cls-3 {
        fill: #4eae33;
      }
    </style>
  </defs>
  <polygon class="cls-1" points="68.18 21.11 88.3 1.22 88.35 21.06 68.18 21.11"/>
  <polygon class="cls-1" points="69.26 29.45 88.35 29.51 88.42 69.32 69.26 69.39 69.26 29.45"/>
  <path class="cls-1" d="M133.68,65.9c-6-2.48-9.23-7.44-9.68-14.84-4.74.26-6.86-1.94-6.4-6.58l5.64-.03-.08-14.97-5.52-.06-.05-22.29h-19.41v22.34l-4.06-.03-.02,15.06,4.03.08.02,16.36c.48,4.4,3.83,7.22,10.06,8.46,0,0,24.9-.06,25.36,0,.45.05.88-.09,1.3-.45.73-1.19.34-2.2-1.19-3.04"/>
  <path class="cls-3" d="M214.99,68.16c-3.86,1.29-8.63,1.64-14.3,1.05-6.94-1.13-12.1-3.8-15.46-8.01-3.01-3.97-4.45-8.51-4.32-13.65.48-7.2,3.27-12.84,8.4-16.9,4.09-3.19,8.52-5,13.31-5.48,4.79-.46,12.3-.22,12.3-.22l.03,19.06-10.97.06c-2.48.51-3.73,2.01-3.78,4.51,0,2.42,1.35,3.84,4.01,4.25,2.68.42,10.67,0,10.67,0l.11,15.34Z"/>
  <path class="cls-3" d="M240.75,24.81h-.12c-13.99,0-25.32,9.98-25.32,22.31s11.32,22.29,25.32,22.29h.12c13.91-.06,25.19-10.02,25.19-22.29s-11.28-22.26-25.19-22.31ZM240.75,53.44c-3.36,0-6.07-2.79-6.07-6.24s2.71-6.24,6.07-6.24,6.06,2.8,6.06,6.24-2.71,6.24-6.06,6.24Z"/>
  <path class="cls-2" d="M271.61,36.74c-3.5,0-6.35-2.75-6.35-6.13s2.85-6.15,6.35-6.15,6.33,2.76,6.33,6.15-2.84,6.13-6.33,6.13ZM271.61,25.44c-2.96,0-5.37,2.32-5.37,5.16s2.41,5.15,5.37,5.15,5.35-2.31,5.35-5.15-2.4-5.16-5.35-5.16Z"/>
  <path class="cls-2" d="M271.35,31.24l-.03-.05h-1.16v2.56h-.82v-6.43h1.73c.09,0,.19,0,.28.02v.73h-1.19v2.42h.84c.12,0,.25,0,.36-.02v.77ZM274.46,33.75h-1.07l-2.05-2.51v-.77c.12,0,.23-.03.33-.05.2-.05.36-.14.5-.26.12-.12.22-.26.28-.42.06-.16.09-.36.09-.6,0-.19-.03-.34-.09-.5-.06-.14-.17-.26-.31-.36-.12-.08-.26-.14-.43-.17-.11-.03-.22-.05-.36-.05v-.73c.25,0,.48.03.67.06.25.05.46.14.67.26.23.15.4.34.53.56.12.23.19.51.19.85,0,.46-.11.85-.33,1.16-.23.31-.54.56-.93.71l2.32,2.8Z"/>
  <path class="cls-2" d="M76.76,95.86l1.46-6.55c.37-1.53.62-2.97.9-4.69h.05c.19,1.75.43,3.16.73,4.69l1.3,6.55h3.76l3.98-15.21h-3.55l-1.25,6.23c-.31,1.81-.67,3.59-.88,5.28h-.05c-.23-1.69-.48-3.32-.82-5.1l-1.24-6.41h-3.7l-1.3,6.23c-.39,1.87-.74,3.7-1.01,5.34h-.05c-.25-1.53-.56-3.49-.9-5.3l-1.18-6.27h-3.72l3.66,15.21h3.81Z"/>
  <g>
    <path class="cls-2" d="M95.29,80.65h-2.2l-4.71,15.21h3.61l1.1-3.9h2.2v-2.57h-1.69l.9-3.24c.26-.87.48-2.03.71-2.93h.05l.03.14v-2.71ZM97.5,91.96l1.18,3.9h3.75l-4.77-15.21h-2.37v2.71c.23.88.48,1.94.74,2.79l.96,3.24h-1.7v2.57h2.21Z"/>
    <path class="cls-2" d="M103.89,95.17c.87.46,2.6.93,4.37.93,4.23,0,6.21-2.17,6.21-4.73,0-2.14-1.29-3.55-4-4.54-1.98-.74-2.85-1.18-2.85-2.14,0-.79.73-1.47,2.23-1.47s2.6.43,3.22.73l.77-2.77c-.91-.42-2.18-.78-3.92-.78-3.64,0-5.83,1.98-5.83,4.59,0,2.2,1.66,3.61,4.21,4.49,1.86.65,2.59,1.19,2.59,2.14,0,.99-.85,1.64-2.45,1.64-1.49,0-2.93-.46-3.86-.95l-.71,2.85Z"/>
  </g>
  <polygon class="cls-2" points="116.82 80.65 116.82 95.86 120.31 95.86 120.31 89.5 126.04 89.5 126.04 95.86 129.51 95.86 129.51 80.65 126.04 80.65 126.04 86.49 120.31 86.49 120.31 80.65 116.82 80.65"/>
  <rect class="cls-2" x="132.53" y="80.65" width="3.5" height="15.21"/>
  <g>
    <path class="cls-2" d="M142.25,95.86v-4.59c0-2.48-.05-4.62-.14-6.63l.06-.03c.76,1.78,1.77,3.75,2.68,5.38l3.28,5.87h3.66v-15.21h-3.19v4.45c0,2.28.06,4.34.29,6.34h-.08c-.68-1.7-1.6-3.61-2.51-5.21l-3.19-5.58h-4.06v15.21h3.19Z"/>
    <path class="cls-2" d="M167.67,87.16h-5.73v2.68h2.37v3.18c-.28.14-.91.23-1.72.23-2.85,0-4.83-1.86-4.83-4.99,0-3.3,2.18-4.93,5.1-4.93,1.69,0,2.73.29,3.58.67l.73-2.76c-.74-.36-2.28-.74-4.28-.74-5.04,0-8.77,2.88-8.78,7.95-.03,2.23.76,4.21,2.17,5.53,1.41,1.35,3.46,2.05,6.26,2.05,2.03,0,4.06-.5,5.14-.85v-8.01Z"/>
    <path class="cls-2" d="M174.39,95.17c.87.46,2.6.93,4.37.93,4.23,0,6.21-2.17,6.21-4.73,0-2.14-1.29-3.55-4-4.54-1.98-.74-2.85-1.18-2.85-2.14,0-.79.73-1.47,2.23-1.47s2.6.43,3.22.73l.77-2.77c-.91-.42-2.18-.78-3.92-.78-3.64,0-5.83,1.98-5.83,4.59,0,2.2,1.66,3.61,4.21,4.49,1.86.65,2.59,1.19,2.59,2.14,0,.99-.85,1.64-2.45,1.64-1.49,0-2.91-.46-3.86-.95l-.71,2.85Z"/>
    <path class="cls-2" d="M194.37,95.86v-6.34l5.07-8.88h-3.9l-1.55,3.66c-.46,1.08-.82,1.97-1.16,2.91h-.05c-.39-.99-.71-1.81-1.19-2.91l-1.58-3.66h-3.97l4.87,8.99v6.23h3.47Z"/>
    <path class="cls-2" d="M199.85,95.17c.87.46,2.6.93,4.35.93,4.23,0,6.21-2.17,6.21-4.73,0-2.14-1.27-3.55-4-4.54-1.98-.74-2.85-1.18-2.85-2.14,0-.79.73-1.47,2.23-1.47s2.6.43,3.22.73l.78-2.77c-.91-.42-2.18-.78-3.92-.78-3.64,0-5.82,1.98-5.82,4.59,0,2.2,1.66,3.61,4.23,4.49,1.84.65,2.57,1.19,2.57,2.14,0,.99-.84,1.64-2.45,1.64-1.47,0-2.91-.46-3.86-.95l-.7,2.85Z"/>
  </g>
  <polygon class="cls-2" points="215.75 95.86 219.23 95.86 219.23 83.53 223.43 83.53 223.43 80.65 211.61 80.65 211.61 83.53 215.75 83.53 215.75 95.86"/>
  <polygon class="cls-2" points="234.44 86.63 228.77 86.63 228.77 83.47 234.79 83.47 234.79 80.65 225.29 80.65 225.29 95.86 235.11 95.86 235.11 93.04 228.77 93.04 228.77 89.43 234.44 89.43 234.44 86.63"/>
  <g>
    <path class="cls-2" d="M250.73,95.86h3.41l-.85-15.21h-4.54l-1.64,5.05c-.51,1.7-1.04,3.7-1.47,5.47h-.06c-.34-1.78-.82-3.69-1.3-5.44l-1.52-5.08h-4.63l-.98,15.21h3.22l.26-5.78c.12-1.89.19-4.24.28-6.29h.05c.37,1.98.9,4.15,1.39,5.93l1.64,5.89h2.73l1.86-5.93c.6-1.78,1.24-3.95,1.72-5.89h.06c0,2.2.08,4.42.14,6.24l.23,5.83Z"/>
    <path class="cls-2" d="M256.21,95.17c.87.46,2.6.93,4.35.93,4.23,0,6.21-2.17,6.21-4.73,0-2.14-1.27-3.55-4-4.54-1.98-.74-2.85-1.18-2.85-2.14,0-.79.73-1.47,2.23-1.47s2.62.43,3.22.73l.77-2.77c-.91-.42-2.18-.78-3.92-.78-3.63,0-5.82,1.98-5.82,4.59,0,2.2,1.67,3.61,4.23,4.49,1.84.65,2.57,1.19,2.57,2.14,0,.99-.84,1.64-2.43,1.64-1.49,0-2.93-.46-3.87-.95l-.7,2.85Z"/>
  </g>
  <path class="cls-3" d="M155.21,24.82c-13.42,0-24.68,10.07-24.8,22.59-.12,12.52,11.53,21.8,24.8,22.08,9.67.2,20.27-5.19,23.87-13.22l-19.86-2.65c-1.04,2.48-2.54,3.61-4.52,3.39-2-.25-3.16-1.72-3.49-4.43l28.01-.12c.45-1.7.51-3.44.6-5.22.6-12.33-11.2-22.42-24.62-22.42ZM150.86,45.18c.26-2.91,1.7-4.4,4.31-4.51,2.82-.2,4.26,1.32,4.31,4.57l-8.61-.06Z"/>
  <path class="cls-2" d="M61.62,2.37c-4.51,5.15-8.13,11.21-10.56,17.9C29.78,25.16,1.47,24.52,0,0c1.98,22.11,42.91,10.1,61.62,2.37M48.27,30.99c-.5,3.09-.76,6.27-.76,9.51,0,.56,0,1.12.02,1.67C27.6,43.55,6.78,35.9,1.16,13.3l-.04-.23c5.59,20.79,28.03,22.08,47.15,17.92M54.17,67.76c.29.55.59,1.1.9,1.65-7-1.02-13.77-3.4-20.18-6.84-1.8-.96-5.86-3.41-8.51-5.88,8.33,6.29,17.74,9.75,27.79,11.07M51.32,61.45c.54,1.42,1.13,2.81,1.77,4.17-14.66-1.29-28.4-8.75-38.29-20.92-.61-.71-1.49-1.97-2.17-3.02,9.67,12.95,23.87,19.37,38.69,19.78M14.8,44.7c-.75-.99-1.47-1.99-2.17-3.02.67,1.06,1.55,2.32,2.17,3.02M48.2,49.56c.39,2.53.93,5.01,1.63,7.41-18.35-.51-35.73-10.29-44.43-28.89-.15-.32-.3-.7-.44-1.11,8.34,17.86,25.9,23.76,43.24,22.59"/>
</svg>